<svg xmlns="http://www.w3.org/2000/svg" viewBox="0 0 640 760"><defs><linearGradient id="wall" x2="1" y2="1"><stop stop-color="#ddd7c9"/><stop offset="1" stop-color="#c5beac"/></linearGradient><linearGradient id="light" x2="1" y2="1"><stop stop-color="#f2e8d7"/><stop offset="1" stop-color="#d9c9b1"/></linearGradient><pattern id="grain" width="7" height="9" patternUnits="userSpaceOnUse"><circle cx="1" cy="1" r=".5" fill="#403829" opacity=".1"/><circle cx="6" cy="6" r=".4" fill="#fff" opacity=".2"/></pattern></defs><path fill="url(#wall)" d="M0 0h640v760H0z"/><path fill="#b4b09e" d="M0 495 376 252l264 242v266H0z"/><path fill="url(#light)" d="m227 0 207 0v495L227 625z"/><path fill="#e9e0cc" d="M0 0h227v625L0 760z"/><path fill="#5d6350" d="M434 0h206v760L434 495z"/><path fill="#7a7e69" d="m434 0 206 270v140L434 156z"/><path fill="#989980" d="m434 313 206 224v91L434 407z"/><path fill="#8c8b74" d="m227 625 207-130 206 265H0z"/><path fill="#cbc3ac" d="m0 687 340-205 53 23L0 760z"/><path fill="#ded6c1" d="m0 644 300-180 40 18L0 687z"/><path fill="#eee5d0" d="m0 601 262-157 38 20L0 644z"/><path fill="#e4dbc5" d="m0 558 224-134 38 20L0 601z"/><path fill="#d2c9b2" d="m0 515 186-112 38 21L0 558z"/><path fill="#4f5544" d="m434 495 206 265H434z" opacity=".6"/><path fill="url(#grain)" d="M0 0h640v760H0z"/></svg>
